<?xml version="1.0" encoding="UTF-8" standalone="no"?>
<svg
   xmlns:osb="http://www.openswatchbook.org/uri/2009/osb"
   xmlns:dc="http://purl.org/dc/elements/1.1/"
   xmlns:cc="http://creativecommons.org/ns#"
   xmlns:rdf="http://www.w3.org/1999/02/22-rdf-syntax-ns#"
   xmlns:svg="http://www.w3.org/2000/svg"
   xmlns="http://www.w3.org/2000/svg"
   xmlns:xlink="http://www.w3.org/1999/xlink"
   xmlns:sodipodi="http://sodipodi.sourceforge.net/DTD/sodipodi-0.dtd"
   xmlns:inkscape="http://www.inkscape.org/namespaces/inkscape"
   version="1.1"
   x="0px"
   y="0px"
   width="512px"
   height="512px"
   viewBox="0 0 512 512"
   enable-background="new 0 0 512 512"
   xml:space="preserve"
   id="svg3338"
   inkscape:version="0.91 r13725"
   sodipodi:docname="github-01.svg"><metadata
     id="metadata3348"><rdf:RDF><cc:Work
         rdf:about=""><dc:format>image/svg+xml</dc:format><dc:type
           rdf:resource="http://purl.org/dc/dcmitype/StillImage" /></cc:Work></rdf:RDF></metadata><defs
     id="defs3346"><linearGradient
       id="linearGradient5746"
       osb:paint="solid"><stop
         style="stop-color:#cb4b16;stop-opacity:1;"
         offset="0"
         id="stop5748" /></linearGradient><linearGradient
       id="linearGradient5736"
       osb:paint="solid"><stop
         style="stop-color:#000000;stop-opacity:1;"
         offset="0"
         id="stop5738" /></linearGradient><linearGradient
       id="base0-6-5"
       osb:paint="solid"><stop
         id="stop5734"
         offset="0"
         style="stop-color:#93a1a1;stop-opacity:1;" /></linearGradient><linearGradient
       id="base0-6"><stop
         style="stop-color:#839496;stop-opacity:1;"
         offset="0"
         id="stop5684" /></linearGradient><linearGradient
       id="base01-6-1"><stop
         style="stop-color:#586e75;stop-opacity:1;"
         offset="0"
         id="stop4246" /></linearGradient><linearGradient
       id="base01-6"><stop
         id="stop4220"
         offset="0"
         style="stop-color:#586e75;stop-opacity:1;" /></linearGradient><linearGradient
       id="linearGradient4190"><stop
         style="stop-color:#000000;stop-opacity:1;"
         offset="0"
         id="stop4192" /></linearGradient><linearGradient
       id="base02"
       osb:paint="solid"><stop
         style="stop-color:#073642;stop-opacity:1;"
         offset="0"
         id="stop4186" /></linearGradient><linearGradient
       id="base03-1"
       osb:paint="solid"><stop
         id="stop4182"
         offset="0"
         style="stop-color:#002b36;stop-opacity:1;" /></linearGradient><linearGradient
       id="base03"><stop
         style="stop-color:#002b36;stop-opacity:1;"
         offset="0"
         id="stop4154" /></linearGradient><linearGradient
       inkscape:collect="always"
       xlink:href="#linearGradient5736"
       id="linearGradient5740"
       x1="0.49915941"
       y1="256.00102"
       x2="511.50027"
       y2="256.00102"
       gradientUnits="userSpaceOnUse" /><linearGradient
       inkscape:collect="always"
       xlink:href="#linearGradient5746"
       id="linearGradient5750"
       x1="-0.0006791777"
       y1="255.99408"
       x2="512.00018"
       y2="255.99408"
       gradientUnits="userSpaceOnUse" /><linearGradient
       inkscape:collect="always"
       xlink:href="#linearGradient5746"
       id="linearGradient5752"
       gradientUnits="userSpaceOnUse"
       x1="0.4991594"
       y1="256.00101"
       x2="511.50027"
       y2="256.00101" /></defs><sodipodi:namedview
     pagecolor="#ffffff"
     bordercolor="#666666"
     borderopacity="1"
     objecttolerance="10"
     gridtolerance="10"
     guidetolerance="10"
     inkscape:pageopacity="0"
     inkscape:pageshadow="2"
     inkscape:window-width="1171"
     inkscape:window-height="1047"
     id="namedview3344"
     showgrid="false"
     inkscape:zoom="0.4609375"
     inkscape:cx="-64"
     inkscape:cy="256"
     inkscape:window-x="752"
     inkscape:window-y="34"
     inkscape:window-maximized="0"
     inkscape:current-layer="5151e0c8492e5103c096af88a5006e1e" /><g
     id="5151e0c8492e5103c096af88a5006e1e"
     style="stroke:url(#linearGradient5740)"><g
       id="g3341"
       style="stroke:url(#linearGradient5740)" /><path
       id="XMLID_1_"
       display="inline"
       d="M6.962,266.753c22.59-5.641,53.305-13.324,107.118-14.753   c-1.487-2.974-2.83-6.053-4.019-9.228c-20.94-0.182-85.43,2.792-107.521,8.25c-0.125,0.039-0.259,0.048-0.393,0.048   c-0.739,0-1.42-0.508-1.602-1.256c-0.211-0.873,0.326-1.774,1.208-1.995c21.89-5.41,84.825-8.413,107.118-8.355   c-5.017-14.753-7.233-31.655-7.233-50.523c0-33.516,10.437-46.159,24.46-64.02c-10.724-38.197,3.847-64.307,3.847-64.307   s22.533-4.671,65.132,25.832c23.089-9.89,84.647-10.714,113.77-2.196c17.88-11.818,50.571-28.585,63.77-23.895   c3.568,5.755,11.262,22.513,4.662,59.348c4.489,8.077,27.761,25.286,27.856,73.928c-0.384,17.938-2.245,33.084-5.698,45.899   c55.54-0.47,88.212,4.115,110.715,8.259c0.883,0.182,1.478,1.036,1.324,1.928c-0.153,0.787-0.844,1.353-1.611,1.353   c-0.115,0-0.211-0.009-0.326-0.019c-22.466-4.163-55.194-8.729-111.061-8.221c-0.979,3.252-2.072,6.341-3.262,9.286   c19.013,0.633,71.233,2.667,113.823,15.693c0.883,0.269,1.362,1.189,1.094,2.072c-0.211,0.7-0.863,1.16-1.573,1.16   c-0.153,0-0.326-0.019-0.479-0.076c-43.185-13.199-96.538-15.012-114.283-15.598c-15.444,33.929-47.118,46.59-98.322,51.856   c16.595,10.446,21.353,23.548,21.353,59.003c0,35.453-0.479,40.211-0.364,48.363c0.173,13.383,19.779,19.789,19.051,24.096   c-0.729,4.299-16.403,3.607-23.731,1.047c-20.758-7.232-18.687-24.5-18.687-24.5l-0.69-47.404c0,0,1.42-25.516-8-25.516   c0,5.131,0,59.242,0,77.592c0,16.863,11.799,21.986,11.799,28.221c0,10.715-21.563-1.016-28.202-7.703   c-10.134-10.168-8.982-31.73-8.733-48.785c0.23-16.471-0.153-52.49-0.153-52.49l-6.877,0.145c0,0,2.82,78.686-3.626,93.025   c-8.335,18.408-33.477,24.74-33.477,16.355c0-5.641,6.196-3.846,9.621-16.488c2.925-10.754,1.928-90.975,1.928-90.975   s-8.057,4.768-8.057,19.789c0,6.877-0.192,46.158-0.192,57.852c0,14.705-20.883,23.078-30.917,23.078   c-5.084,0-11.405-0.248-11.405-2.943c0-6.801,19.099-10.793,19.099-24.941c0-12.268-0.269-43.826-0.269-43.826   s-9.631,1.648-23.367,1.648c-34.628,0-45.583-22.1-50.792-34.465c-6.782-16.105-15.578-23.673-24.921-29.717   c-5.736-3.712-7.06-8.096-0.422-9.343c30.657-5.774,38.494,34.763,58.964,41.218c14.609,4.615,33.391,2.619,42.734-3.424   c1.238-12.385,10.159-23.089,17.593-28.729c-52.067-4.998-82.936-23.079-98.936-52.145c-54.466,1.305-85.372,9.036-108.029,14.695   c-1.65,0.413-3.261,0.815-4.815,1.209c-0.134,0.028-0.269,0.038-0.403,0.038c-0.739,0-1.41-0.499-1.602-1.247   c-0.221-0.882,0.326-1.784,1.209-2.005C3.72,267.567,5.322,267.175,6.962,266.753z"
       style="stroke:url(#linearGradient5752);fill-opacity:1;fill:url(#linearGradient5750)" /></g><path
     style="fill:none;fill-opacity:1"
     d="m 216.29831,450.35284 c 0,-0.79408 2.19661,-4.41199 4.88135,-8.03979 4.66383,-6.30205 4.91029,-8.7393 5.53064,-54.6918 0.59885,-44.36005 0.37581,-47.82464 -2.87149,-44.60449 -5.59323,5.54648 -7.43327,18.14839 -7.48875,51.28832 -0.0576,34.42081 -0.86253,36.52752 -16.44341,43.03762 -7.02945,2.93708 -22.65919,4.27722 -22.65919,1.94284 0,-0.6167 4.39322,-5.3307 9.76271,-10.47558 l 9.76271,-9.35433 0,-25.33617 0,-25.33619 -14.77566,1.37325 c -18.82999,1.75006 -36.43117,-2.98527 -45.75577,-12.30985 -3.6266,-3.62661 -10.20872,-13.473 -14.62694,-21.88088 -5.03522,-9.58204 -11.94081,-18.65225 -18.5041,-24.30438 -5.759047,-4.95955 -10.471471,-9.74955 -10.472057,-10.64446 -5.86e-4,-0.89492 3.687502,-1.62712 8.195747,-1.62712 10.4051,0 18.55503,5.79647 33.10102,23.54241 12.82966,15.65204 20.75546,19.84742 37.49519,19.84742 18.31598,0 24.60829,-3.13743 29.78884,-14.85314 2.45538,-5.55281 6.89202,-12.63119 9.85919,-15.72973 l 5.39487,-5.63371 -15.81627,-2.56082 c -68.78175,-11.1365 -99.78287,-49.23741 -96.76576,-118.92675 1.01173,-23.36891 5.37238,-36.39377 17.0829,-51.0251 l 6.44403,-8.05128 -2.50563,-15.17216 c -2.5091,-15.193165 -0.26845,-36.626688 4.82424,-46.147702 3.6368,-6.799142 26.16895,-0.666742 50.41957,13.722302 14.24983,8.455104 15.20048,8.705506 23.8644,6.285977 13.72879,-3.833967 69.26729,-5.36193 88.10411,-2.4239 l 16.16548,2.521373 21.80063,-10.932124 c 11.99033,-6.012668 26.32357,-11.538528 31.85163,-12.279689 l 10.05099,-1.347566 2.96596,8.395654 c 1.79172,5.07182 2.96593,17.474998 2.96593,31.329119 0,21.794726 0.30293,23.331356 6.10057,30.946786 12.51562,16.43977 17.35068,30.90569 18.42829,55.13534 2.97095,66.80081 -19.78314,102.21368 -73.34242,114.14503 -7.75593,1.72779 -18.86086,3.79987 -24.67761,4.60462 l -10.57591,1.46321 7.57653,7.96204 c 11.49946,12.08458 12.89052,18.59673 14.11229,66.06522 l 1.10462,42.91673 8.39953,7.1897 c 4.61974,3.95433 8.39954,7.82824 8.39954,8.60869 0,2.54983 -15.15583,1.49001 -22.48509,-1.57234 -3.93761,-1.64523 -9.27574,-5.68198 -11.86252,-8.97054 -4.33893,-5.51606 -4.71273,-8.51927 -4.82569,-38.77138 -0.12158,-32.56072 -2.4598,-46.72425 -8.01314,-48.53881 -2.10987,-0.68942 -2.7094,8.9063 -2.70075,43.22688 0.0108,43.07634 0.13672,44.31692 5.35602,52.79095 7.21328,11.71146 7.09213,14.97435 -0.48578,13.08303 -10.43912,-2.60545 -20.45681,-10.24286 -23.99705,-18.29517 -2.62829,-5.97805 -3.63857,-17.83343 -4.31644,-50.65226 -0.81428,-39.42305 -1.19589,-42.84746 -4.77488,-42.84746 -3.58161,0 -3.96327,3.48147 -4.8161,43.9322 -0.53032,25.15387 -1.95892,46.39121 -3.34223,49.68511 -3.09013,7.35813 -15.17115,16.59507 -24.01923,18.36468 -3.77831,0.75568 -6.86966,0.72424 -6.86966,-0.0698 z"
     id="path5742"
     inkscape:connector-curvature="0" /><path
     style="fill:none;fill-opacity:1"
     d="m 216.29831,450.35284 c 0,-0.79408 2.19661,-4.41199 4.88135,-8.03979 4.66383,-6.30205 4.91029,-8.7393 5.53064,-54.6918 0.59885,-44.36005 0.37581,-47.82464 -2.87149,-44.60449 -5.59323,5.54648 -7.43327,18.14839 -7.48875,51.28832 -0.0576,34.42081 -0.86253,36.52752 -16.44341,43.03762 -7.02945,2.93708 -22.65919,4.27722 -22.65919,1.94284 0,-0.6167 4.39322,-5.3307 9.76271,-10.47558 l 9.76271,-9.35433 0,-25.33617 0,-25.33619 -14.77566,1.37325 c -18.82999,1.75006 -36.43117,-2.98527 -45.75577,-12.30985 -3.6266,-3.62661 -10.20872,-13.473 -14.62694,-21.88088 -5.03522,-9.58204 -11.94081,-18.65225 -18.5041,-24.30438 -5.759047,-4.95955 -10.471471,-9.74955 -10.472057,-10.64446 -5.86e-4,-0.89492 3.687502,-1.62712 8.195747,-1.62712 10.4051,0 18.55503,5.79647 33.10102,23.54241 12.82966,15.65204 20.75546,19.84742 37.49519,19.84742 18.31598,0 24.60829,-3.13743 29.78884,-14.85314 2.45538,-5.55281 6.89202,-12.63119 9.85919,-15.72973 l 5.39487,-5.63371 -15.81627,-2.56082 c -68.78175,-11.1365 -99.78287,-49.23741 -96.76576,-118.92675 1.01173,-23.36891 5.37238,-36.39377 17.0829,-51.0251 l 6.44403,-8.05128 -2.50563,-15.17216 c -2.5091,-15.193165 -0.26845,-36.626688 4.82424,-46.147702 3.6368,-6.799142 26.16895,-0.666742 50.41957,13.722302 14.24983,8.455104 15.20048,8.705506 23.8644,6.285977 13.72879,-3.833967 69.26729,-5.36193 88.10411,-2.4239 l 16.16548,2.521373 21.80063,-10.932124 c 11.99033,-6.012668 26.32357,-11.538528 31.85163,-12.279689 l 10.05099,-1.347566 2.96596,8.395654 c 1.79172,5.07182 2.96593,17.474998 2.96593,31.329119 0,21.794726 0.30293,23.331356 6.10057,30.946786 12.51562,16.43977 17.35068,30.90569 18.42829,55.13534 2.97095,66.80081 -19.78314,102.21368 -73.34242,114.14503 -7.75593,1.72779 -18.86086,3.79987 -24.67761,4.60462 l -10.57591,1.46321 7.57653,7.96204 c 11.49946,12.08458 12.89052,18.59673 14.11229,66.06522 l 1.10462,42.91673 8.39953,7.1897 c 4.61974,3.95433 8.39954,7.82824 8.39954,8.60869 0,2.54983 -15.15583,1.49001 -22.48509,-1.57234 -3.93761,-1.64523 -9.27574,-5.68198 -11.86252,-8.97054 -4.33893,-5.51606 -4.71273,-8.51927 -4.82569,-38.77138 -0.12158,-32.56072 -2.4598,-46.72425 -8.01314,-48.53881 -2.10987,-0.68942 -2.7094,8.9063 -2.70075,43.22688 0.0108,43.07634 0.13672,44.31692 5.35602,52.79095 7.21328,11.71146 7.09213,14.97435 -0.48578,13.08303 -10.43912,-2.60545 -20.45681,-10.24286 -23.99705,-18.29517 -2.62829,-5.97805 -3.63857,-17.83343 -4.31644,-50.65226 -0.81428,-39.42305 -1.19589,-42.84746 -4.77488,-42.84746 -3.58161,0 -3.96327,3.48147 -4.8161,43.9322 -0.53032,25.15387 -1.95892,46.39121 -3.34223,49.68511 -3.09013,7.35813 -15.17115,16.59507 -24.01923,18.36468 -3.77831,0.75568 -6.86966,0.72424 -6.86966,-0.0698 z"
     id="path5744"
     inkscape:connector-curvature="0" /></svg>