<svg xmlns="http://www.w3.org/2000/svg" xmlns:xlink="http://www.w3.org/1999/xlink" version="1.1" x="0px" y="0px" viewBox="0 0 100 125" style="enable-background:new 0 0 100 100;" xml:space="preserve"><g><path d="M76.2,86.2h10v-10h10V3.8H23.8v10h-10v10h-10v72.4h72.4V86.2z M8.8,91.2V28.8h62.4v62.4H8.8z M91.2,8.8v62.4h-5V13.8H28.8   v-5H91.2z M81.2,18.8v62.4h-5V23.8H18.8v-5H81.2z"/><path d="M34.1,76.4c0.3,0.1,0.6,0.2,0.9,0.2c1,0,2-0.6,2.3-1.6c0.5-1.3-0.2-2.7-1.5-3.2c-6.2-2.3-9.4-9.2-7.1-15.4   c1.1-3,3.3-5.4,6.2-6.7c2.9-1.3,6.2-1.5,9.2-0.3c2.7,1,5,3,6.4,5.5l-3.3,0l6.3,10.7l6.1-10.9l-3.7,0c-1.7-4.7-5.4-8.4-10.1-10.2   c-4.3-1.6-8.9-1.4-13,0.5c-4.1,1.9-7.3,5.3-8.8,9.5C20.8,63.3,25.3,73.1,34.1,76.4z"/></g><text x="0" y="115" fill="#000000" font-size="5px" font-weight="bold" font-family="'Helvetica Neue', Helvetica, Arial-Unicode, Arial, Sans-serif">Created by Michal Beno</text><text x="0" y="120" fill="#000000" font-size="5px" font-weight="bold" font-family="'Helvetica Neue', Helvetica, Arial-Unicode, Arial, Sans-serif">from the Noun Project</text></svg>